<?xml version="1.0" encoding="UTF-8"?> <svg xmlns="http://www.w3.org/2000/svg" xmlns:xlink="http://www.w3.org/1999/xlink" id="Capa_1" data-name="Capa 1" viewBox="0 0 646 153.88"><defs><style>.cls-1{fill:url(#Degradado_sin_nombre_2);}.cls-2{fill:url(#Degradado_sin_nombre_8);}.cls-3{fill:url(#Degradado_sin_nombre_8-2);}.cls-4{fill:url(#Degradado_sin_nombre_8-3);}.cls-5{fill:url(#Degradado_sin_nombre_8-4);}.cls-6{fill:url(#Degradado_sin_nombre_8-5);}.cls-7{fill:url(#Degradado_sin_nombre_8-6);}.cls-8{fill:url(#Degradado_sin_nombre_8-7);}.cls-9{fill:#097a41;}.cls-10{fill:#010101;}</style><linearGradient id="Degradado_sin_nombre_2" x1="84.75" y1="1033.66" x2="84.75" y2="952.75" gradientTransform="matrix(1, 0, 0, -1, 0, 1063.14)" gradientUnits="userSpaceOnUse"><stop offset="0" stop-color="#fecd30"></stop><stop offset="1" stop-color="#e14031"></stop></linearGradient><linearGradient id="Degradado_sin_nombre_8" x1="79.84" y1="1063.43" x2="79.84" y2="1041.3" gradientTransform="matrix(1, 0, 0, -1, 0, 1063.14)" gradientUnits="userSpaceOnUse"><stop offset="0" stop-color="#fecd30"></stop><stop offset="1" stop-color="#e44031"></stop></linearGradient><linearGradient id="Degradado_sin_nombre_8-2" x1="132.55" y1="1043.61" x2="120.9" y2="1031.25" xlink:href="#Degradado_sin_nombre_8"></linearGradient><linearGradient id="Degradado_sin_nombre_8-3" x1="155.74" y1="1001.77" x2="134.99" y2="1001.77" xlink:href="#Degradado_sin_nombre_8"></linearGradient><linearGradient id="Degradado_sin_nombre_8-4" x1="154" y1="970.77" x2="135.49" y2="978.61" xlink:href="#Degradado_sin_nombre_8"></linearGradient><linearGradient id="Degradado_sin_nombre_8-5" x1="6.54" y1="962.28" x2="32.2" y2="974.39" xlink:href="#Degradado_sin_nombre_8"></linearGradient><linearGradient id="Degradado_sin_nombre_8-6" x1="1.41" y1="1003.36" x2="30.56" y2="999.89" xlink:href="#Degradado_sin_nombre_8"></linearGradient><linearGradient id="Degradado_sin_nombre_8-7" x1="22.02" y1="1048.45" x2="46.67" y2="1031.79" xlink:href="#Degradado_sin_nombre_8"></linearGradient></defs><title>logo-maquita</title><path class="cls-1" d="M130.68,69.77c0,23.37-20.56,42.28-45.93,42.28S38.81,93.14,38.81,69.77s20.61-42.3,45.94-42.3S130.68,46.41,130.68,69.77Z"></path><polygon class="cls-2" points="74.94 0 83.42 0 84.75 21.86 78.06 23.54 74.94 0"></polygon><polygon class="cls-3" points="114.19 30.83 129.35 15.13 136.48 23.54 122.21 36.98 114.19 30.83"></polygon><polygon class="cls-4" points="133.8 55.47 134.69 63.33 154.76 67.25 155.22 56.03 133.8 55.47"></polygon><polygon class="cls-5" points="135.59 79.57 154.33 84.62 152.54 96.38 134.26 91.89 135.59 79.57"></polygon><polygon class="cls-6" points="32.56 83.5 33.91 92.46 7.58 107.02 3.14 95.82 32.56 83.5"></polygon><polygon class="cls-7" points="31.66 67.25 32.12 60.52 1.35 53.81 0 65.57 31.66 67.25"></polygon><polygon class="cls-8" points="19.18 20.17 45.04 36.98 47.72 31.39 24.54 8.97 19.18 20.17"></polygon><path class="cls-9" d="M31.25,85.74H45.79s-.7-12.11-6.07-12.11S31.25,85.74,31.25,85.74Z"></path><path class="cls-9" d="M31.08,89.19H45.17s4.63,8.31,7.12,8S64.43,70.64,64.43,70.64H78.7l6.61,25.2-5.53-9.28L80,105.82l3.76,28.46-13.9-28.76-6.23,26.81L62.52,84.71,55.37,99.25s-2.66,5.13-9.27-1.87l1.25,23.1-3.57.81v14.86l-7-13.09-3.38,12.15-1-13.4H26.18l5.34-24.53L23,108Z"></path><path class="cls-9" d="M79.43,60.48c0,3.24-3.72,5.88-8.31,5.88s-8.31-2.64-8.31-5.88,3.72-5.88,8.31-5.88S79.43,57.24,79.43,60.48Z"></path><path class="cls-9" d="M98.5,73h16.62V68a8.52,8.52,0,0,0-8.7-8.33l-.4,0s-7.5,1.46-7.5,6.4Z"></path><polygon class="cls-9" points="98.69 77.68 114.92 77.08 118.49 92.95 123.12 104.9 114.21 92.12 114.56 118.92 114.75 132.33 106.71 118.51 99.77 117.08 96.01 133.16 94.41 117.28 88.88 116.25 98.5 91.29 86.91 98.73 98.69 77.68"></polygon><polygon class="cls-9" points="124.2 103.26 126.34 85.93 143.81 85.93 154.16 105.11 142.4 95.22 148.47 134.8 136.5 112.73 131.52 129.65 130.27 96.26 124.2 103.26"></polygon><path class="cls-9" d="M141.86,77c0,3.34-3.28,6.06-7.31,6.06A6.76,6.76,0,0,1,127.24,77a7.44,7.44,0,0,1,14.54,0Z"></path><path class="cls-10" d="M214.93,40.14a7.64,7.64,0,0,1-2.67,1.39,12.38,12.38,0,0,1-3.78.52,13.38,13.38,0,0,1-4.75-.72,3.79,3.79,0,0,1-2.43-2.47q-2.24-7-3.66-11.36t-2.24-7.61H195c-.16,3.14-.28,6-.36,8.57s-.14,5.09-.16,7.53-.08,4.92-.16,7.42-.2,5.26-.36,8.29a14.43,14.43,0,0,1-2.71.67,19.93,19.93,0,0,1-3.35.28,11.13,11.13,0,0,1-5.46-1.11c-1.3-.75-1.95-2.1-1.95-4.07l2.31-40.65a7.47,7.47,0,0,1,2.79-2.23,12.56,12.56,0,0,1,6.06-1.2,13.78,13.78,0,0,1,6.61,1.32A7.73,7.73,0,0,1,201.78,9c.48,1.28,1,2.74,1.56,4.39s1.11,3.34,1.67,5.1,1.1,3.49,1.63,5.22,1,3.28,1.44,4.66h.4q1.91-6.69,3.82-12.95t3.51-10.48a12.5,12.5,0,0,1,3.07-1.08,18.49,18.49,0,0,1,4.18-.44,15.13,15.13,0,0,1,6.38,1.16,4.58,4.58,0,0,1,2.87,3.31c.21,1.06.44,2.69.68,4.9s.49,4.69.75,7.45.53,5.69.8,8.77.52,6,.76,8.89.44,5.44.6,7.81.26,4.18.32,5.46a10.6,10.6,0,0,1-2.83,1.15,16.48,16.48,0,0,1-3.79.36,11.33,11.33,0,0,1-5.1-1c-1.38-.69-2.13-2-2.23-4.07q-.48-8.69-.6-15.62c-.08-4.63-.2-8.5-.36-11.64h-.4c-.53,2.07-1.3,4.68-2.31,7.81S216.37,35.25,214.93,40.14Z"></path><path class="cls-10" d="M255.74,5.14a17.25,17.25,0,0,1,4.11-1.51,21.77,21.77,0,0,1,5.54-.72,19.89,19.89,0,0,1,7.05,1.16,6.15,6.15,0,0,1,3.95,3.63q1.44,4.14,3.11,9.64t3.34,11.36q1.68,5.85,3.27,11.56t2.79,10.08A6.44,6.44,0,0,1,286,52.13a13.39,13.39,0,0,1-4.54.68,14.08,14.08,0,0,1-3.23-.32,5.77,5.77,0,0,1-2.15-1,4.82,4.82,0,0,1-1.36-1.68,14.58,14.58,0,0,1-.91-2.39L272.4,42H258c-.43,1.6-.86,3.24-1.28,4.94s-.85,3.35-1.28,4.94a17.91,17.91,0,0,1-2.35.68,13.5,13.5,0,0,1-3,.28q-4.07,0-6-1.39a4.48,4.48,0,0,1-2-3.87,8.18,8.18,0,0,1,.32-2.23c.21-.74.45-1.62.72-2.63q.56-2.16,1.55-5.34t2.2-6.9q1.18-3.7,2.55-7.61L252,15.47q1.19-3.47,2.19-6.18C254.85,7.48,255.37,6.1,255.74,5.14Zm9.57,10.29c-.75,2.23-1.58,4.71-2.51,7.45s-1.77,5.51-2.51,8.33h9.88q-1.11-4.3-2.27-8.41c-.77-2.74-1.48-5.19-2.11-7.37Z"></path><path class="cls-10" d="M292.25,27.78a29,29,0,0,1,1.95-11A22.15,22.15,0,0,1,307.52,3.87a30.3,30.3,0,0,1,19.84,0,23.1,23.1,0,0,1,8,4.9,22.39,22.39,0,0,1,5.38,8,28.78,28.78,0,0,1,2,11,28.22,28.22,0,0,1-2.87,13.27A22,22,0,0,1,332,49.62c.79.38,1.74.77,2.83,1.2s2.23.85,3.42,1.27,2.43.84,3.71,1.24,2.47.76,3.59,1.08a5.48,5.48,0,0,1,.08.83v.68c0,3-.79,5.23-2.35,6.62a9,9,0,0,1-6.18,2.07,16.39,16.39,0,0,1-7.57-2,36.35,36.35,0,0,1-8-5.86l-3.5-3.27h-.64a28.68,28.68,0,0,1-10-1.71,22.55,22.55,0,0,1-8-5,23,23,0,0,1-5.26-8A29.3,29.3,0,0,1,292.25,27.78Zm14.35,0q0,7.26,2.95,10.84a9.68,9.68,0,0,0,7.89,3.59,9.79,9.79,0,0,0,8-3.59q3-3.59,2.95-10.84T325.45,17a9.66,9.66,0,0,0-7.93-3.58A9.85,9.85,0,0,0,309.59,17Q306.61,20.54,306.6,27.78Z"></path><path class="cls-10" d="M393.64,34.16A20.29,20.29,0,0,1,392.17,42a16.73,16.73,0,0,1-4.27,6.06,19.28,19.28,0,0,1-6.77,3.86,30.53,30.53,0,0,1-18,0,19.19,19.19,0,0,1-6.77-3.86A16.61,16.61,0,0,1,352.07,42a20.29,20.29,0,0,1-1.47-7.85V3.71c.58-.11,1.51-.25,2.79-.44A26.15,26.15,0,0,1,357.05,3a17,17,0,0,1,3.23.28,5.72,5.72,0,0,1,2.35,1,4.31,4.31,0,0,1,1.44,2,9.71,9.71,0,0,1,.48,3.35V33.92a8.17,8.17,0,0,0,2.11,6,8.06,8.06,0,0,0,11,0,8.28,8.28,0,0,0,2.07-6V3.71c.59-.11,1.52-.25,2.79-.44A26.41,26.41,0,0,1,386.15,3a17.11,17.11,0,0,1,3.23.28,5.78,5.78,0,0,1,2.35,1,4.29,4.29,0,0,1,1.43,2,9.71,9.71,0,0,1,.48,3.35Z"></path><path class="cls-10" d="M417.71,51.7a24.41,24.41,0,0,1-2.75.47,29.08,29.08,0,0,1-3.7.24,16.25,16.25,0,0,1-3.23-.28,5.58,5.58,0,0,1-2.35-1,4.31,4.31,0,0,1-1.44-2,9.71,9.71,0,0,1-.48-3.35V3.71c.59-.11,1.52-.25,2.79-.44A26.41,26.41,0,0,1,410.22,3a17.11,17.11,0,0,1,3.23.28,5.78,5.78,0,0,1,2.35,1,4.22,4.22,0,0,1,1.43,2,9.71,9.71,0,0,1,.48,3.35Z"></path><path class="cls-10" d="M425.84,14.87a10,10,0,0,1-1-2.39,10.48,10.48,0,0,1-.48-3.19c0-2.07.46-3.56,1.39-4.46a5,5,0,0,1,3.63-1.36H464.1a10.53,10.53,0,0,1,1,2.39,10.53,10.53,0,0,1,.48,3.19c0,2.07-.47,3.56-1.4,4.46a5,5,0,0,1-3.62,1.36h-8.85V51.7a24.84,24.84,0,0,1-2.75.47,29.24,29.24,0,0,1-3.71.24,16.32,16.32,0,0,1-3.23-.28,5.63,5.63,0,0,1-2.35-1,4.29,4.29,0,0,1-1.43-2,9.71,9.71,0,0,1-.48-3.35V14.87Z"></path><path class="cls-10" d="M479.49,5.14a17,17,0,0,1,4.1-1.51,21.83,21.83,0,0,1,5.54-.72,20,20,0,0,1,7.06,1.16,6.13,6.13,0,0,1,3.94,3.63q1.44,4.14,3.11,9.64t3.35,11.36q1.67,5.85,3.27,11.56t2.79,10.08a6.55,6.55,0,0,1-2.87,1.79,13.46,13.46,0,0,1-4.55.68,14,14,0,0,1-3.22-.32,5.82,5.82,0,0,1-2.16-1,4.8,4.8,0,0,1-1.35-1.68,14.56,14.56,0,0,1-.92-2.39L496.15,42H481.72c-.43,1.6-.85,3.24-1.28,4.94s-.85,3.35-1.27,4.94a18.85,18.85,0,0,1-2.35.68,13.56,13.56,0,0,1-3,.28q-4.06,0-6-1.39a4.49,4.49,0,0,1-1.95-3.87,7.81,7.81,0,0,1,.32-2.23c.21-.74.45-1.62.71-2.63q.56-2.16,1.56-5.34t2.19-6.9q1.2-3.7,2.55-7.61l2.55-7.37q1.2-3.47,2.19-6.18C478.6,7.48,479.12,6.1,479.49,5.14Zm9.56,10.29q-1.11,3.34-2.51,7.45c-.93,2.74-1.77,5.51-2.51,8.33h9.88q-1.11-4.3-2.27-8.41c-.77-2.74-1.47-5.19-2.11-7.37Z"></path><path class="cls-10" d="M206.16,83.55q-6.14,0-9.4,3.75t-3.27,10.6q0,6.94,3.63,10.68a13,13,0,0,0,9.76,3.75,15.29,15.29,0,0,0,5.54-.88,38.25,38.25,0,0,0,4.35-2,7.94,7.94,0,0,1,2.11,2.67,8.29,8.29,0,0,1,.76,3.63c0,2.18-1.21,4-3.63,5.54s-6.1,2.27-11,2.27a32.52,32.52,0,0,1-10-1.52,22.15,22.15,0,0,1-8.21-4.66,21.88,21.88,0,0,1-5.54-8,29.44,29.44,0,0,1-2-11.52,28.47,28.47,0,0,1,2-11,23.25,23.25,0,0,1,5.34-8A22.42,22.42,0,0,1,194.37,74a27.81,27.81,0,0,1,9.72-1.67q7.33,0,11.36,2.39c2.68,1.59,4,3.64,4,6.13a6.2,6.2,0,0,1-1,3.59,8.49,8.49,0,0,1-2.39,2.39,26.48,26.48,0,0,0-4.42-2.31A14.4,14.4,0,0,0,206.16,83.55Z"></path><path class="cls-10" d="M269.85,104.28a20.29,20.29,0,0,1-1.47,7.85,16.73,16.73,0,0,1-4.27,6.06,19.19,19.19,0,0,1-6.77,3.86,30.53,30.53,0,0,1-18,0,19.28,19.28,0,0,1-6.77-3.86,16.73,16.73,0,0,1-4.27-6.06,20.29,20.29,0,0,1-1.47-7.85V73.83c.58-.11,1.51-.25,2.79-.44a26.29,26.29,0,0,1,3.67-.28,17,17,0,0,1,3.22.28,5.82,5.82,0,0,1,2.36,1,4.36,4.36,0,0,1,1.43,2,9.71,9.71,0,0,1,.48,3.35V104a8.17,8.17,0,0,0,2.11,6,8.06,8.06,0,0,0,11,0,8.28,8.28,0,0,0,2.07-6V73.83c.59-.11,1.52-.25,2.79-.44a26.41,26.41,0,0,1,3.67-.28,17.11,17.11,0,0,1,3.23.28,5.78,5.78,0,0,1,2.35,1,4.22,4.22,0,0,1,1.43,2,9.71,9.71,0,0,1,.48,3.35Z"></path><path class="cls-10" d="M293.69,102.92q-3.51-1.19-6.38-2.43a19.45,19.45,0,0,1-4.94-3,12.2,12.2,0,0,1-3.23-4.18A13.77,13.77,0,0,1,278,87.38a13,13,0,0,1,5.22-10.84q5.22-4.07,14.63-4.07a39.88,39.88,0,0,1,6.38.48,18.92,18.92,0,0,1,5.06,1.48A8.75,8.75,0,0,1,312.58,77a5.8,5.8,0,0,1,1.19,3.63,6.41,6.41,0,0,1-.95,3.54,9.76,9.76,0,0,1-2.32,2.51,18.17,18.17,0,0,0-4.7-2,23.54,23.54,0,0,0-6.46-.84,10.7,10.7,0,0,0-5.26,1,2.9,2.9,0,0,0-1.67,2.51,2.31,2.31,0,0,0,1,2,10.69,10.69,0,0,0,3.1,1.4l4.23,1.35q7.49,2.4,11.52,6.1t4,10.08a13.29,13.29,0,0,1-5.34,11q-5.34,4.17-15.7,4.18a36.45,36.45,0,0,1-6.82-.6,21.67,21.67,0,0,1-5.5-1.75,10.17,10.17,0,0,1-3.66-2.87,6.29,6.29,0,0,1-1.32-4,5.94,5.94,0,0,1,1.36-3.94,10.11,10.11,0,0,1,3-2.51,21.37,21.37,0,0,0,5.46,3,19,19,0,0,0,7.05,1.27c2.6,0,4.44-.4,5.5-1.2a3.44,3.44,0,0,0,1.6-2.78,2.74,2.74,0,0,0-1.28-2.44A16.9,16.9,0,0,0,297,104Z"></path><path class="cls-10" d="M367.1,121.82a24.84,24.84,0,0,1-2.75.47,29.24,29.24,0,0,1-3.71.24,16.32,16.32,0,0,1-3.23-.28,5.63,5.63,0,0,1-2.35-1,4.27,4.27,0,0,1-1.43-2,9.64,9.64,0,0,1-.48-3.34V103.48H337.84v18.34a24.41,24.41,0,0,1-2.75.47,29,29,0,0,1-3.7.24,16.32,16.32,0,0,1-3.23-.28,5.63,5.63,0,0,1-2.35-1,4.29,4.29,0,0,1-1.44-2,9.67,9.67,0,0,1-.47-3.34V73.83c.58-.11,1.51-.25,2.79-.44a26.15,26.15,0,0,1,3.66-.28,17.11,17.11,0,0,1,3.23.28,5.78,5.78,0,0,1,2.35,1,4.31,4.31,0,0,1,1.44,2,10,10,0,0,1,.47,3.35V92.48h15.31V73.83c.58-.11,1.51-.25,2.79-.44a26.29,26.29,0,0,1,3.67-.28,17,17,0,0,1,3.22.28,5.72,5.72,0,0,1,2.35,1,4.31,4.31,0,0,1,1.44,2,9.71,9.71,0,0,1,.48,3.35Z"></path><path class="cls-10" d="M420.26,104.28a20.29,20.29,0,0,1-1.47,7.85,16.59,16.59,0,0,1-4.26,6.06,19.32,19.32,0,0,1-6.78,3.86,30.49,30.49,0,0,1-18,0,19.23,19.23,0,0,1-6.78-3.86,16.59,16.59,0,0,1-4.26-6.06,20.11,20.11,0,0,1-1.48-7.85V73.83c.59-.11,1.52-.25,2.79-.44a26.41,26.41,0,0,1,3.67-.28,17.11,17.11,0,0,1,3.23.28,5.78,5.78,0,0,1,2.35,1,4.29,4.29,0,0,1,1.43,2,9.71,9.71,0,0,1,.48,3.35V104a8.17,8.17,0,0,0,2.11,6,8.06,8.06,0,0,0,11,0,8.29,8.29,0,0,0,2.08-6V73.83c.58-.11,1.51-.25,2.78-.44a26.41,26.41,0,0,1,3.67-.28,17.11,17.11,0,0,1,3.23.28,5.78,5.78,0,0,1,2.35,1,4.31,4.31,0,0,1,1.44,2,9.73,9.73,0,0,1,.47,3.35Z"></path><path class="cls-10" d="M474.15,120.46a7.17,7.17,0,0,1-3.23,1.71,18.72,18.72,0,0,1-5.06.6,17.62,17.62,0,0,1-5.58-.87,7.76,7.76,0,0,1-4.31-4.23l-7.89-16.1c-.8-1.65-1.51-3.2-2.15-4.66s-1.33-3.15-2.07-5.07l-.48.08c.21,2.87.33,5.8.36,8.77s0,5.9,0,8.77v12.36a25.34,25.34,0,0,1-2.67.47,26.8,26.8,0,0,1-3.55.24,18,18,0,0,1-3.11-.24,4.73,4.73,0,0,1-2.23-1,4.57,4.57,0,0,1-1.36-2,9.29,9.29,0,0,1-.47-3.22V76.3a6.64,6.64,0,0,1,3.42-2.39,15.11,15.11,0,0,1,4.95-.8,17.29,17.29,0,0,1,5.62.92,7.61,7.61,0,0,1,4.26,4.18l8,16.11c.8,1.64,1.52,3.2,2.15,4.66s1.33,3.15,2.08,5.06l.39-.08q-.32-4.3-.39-8.61c-.06-2.87-.08-5.74-.08-8.61V73.83a21.75,21.75,0,0,1,2.67-.48,26.54,26.54,0,0,1,3.54-.24,9.5,9.5,0,0,1,5.34,1.24c1.23.82,1.84,2.54,1.84,5.14Z"></path><path class="cls-10" d="M509.14,83.55q-6.13,0-9.41,3.75t-3.26,10.6q0,6.94,3.62,10.68t9.77,3.75a15.37,15.37,0,0,0,5.54-.88,38.1,38.1,0,0,0,4.34-2,7.82,7.82,0,0,1,2.11,2.67,8.15,8.15,0,0,1,.76,3.63c0,2.18-1.21,4-3.63,5.54s-6.09,2.27-11,2.27a32.52,32.52,0,0,1-10-1.52,22.23,22.23,0,0,1-8.21-4.66,21.88,21.88,0,0,1-5.54-8,29.45,29.45,0,0,1-2-11.52,28.66,28.66,0,0,1,1.95-11,23.25,23.25,0,0,1,5.34-8A22.51,22.51,0,0,1,497.34,74a27.82,27.82,0,0,1,9.73-1.67q7.33,0,11.35,2.39c2.69,1.59,4,3.64,4,6.13a6.2,6.2,0,0,1-1,3.59A8.36,8.36,0,0,1,519,86.82a26.09,26.09,0,0,0-4.42-2.31A14.39,14.39,0,0,0,509.14,83.55Z"></path><path class="cls-10" d="M573.23,121.82a25.28,25.28,0,0,1-2.75.47,29.24,29.24,0,0,1-3.71.24,16.32,16.32,0,0,1-3.23-.28,5.63,5.63,0,0,1-2.35-1,4.29,4.29,0,0,1-1.44-2,9.92,9.92,0,0,1-.47-3.34V103.48H544v18.34a24.41,24.41,0,0,1-2.75.47,29.08,29.08,0,0,1-3.7.24,16.25,16.25,0,0,1-3.23-.28,5.58,5.58,0,0,1-2.35-1,4.29,4.29,0,0,1-1.44-2,9.64,9.64,0,0,1-.48-3.34V73.83c.59-.11,1.52-.25,2.79-.44a26.41,26.41,0,0,1,3.67-.28,17.11,17.11,0,0,1,3.23.28,5.78,5.78,0,0,1,2.35,1,4.22,4.22,0,0,1,1.43,2,9.71,9.71,0,0,1,.48,3.35V92.48h15.31V73.83c.58-.11,1.51-.25,2.79-.44a26.15,26.15,0,0,1,3.66-.28,17.11,17.11,0,0,1,3.23.28,5.72,5.72,0,0,1,2.35,1,4.31,4.31,0,0,1,1.44,2,9.71,9.71,0,0,1,.48,3.35Z"></path><path class="cls-10" d="M597.54,121.82a24.84,24.84,0,0,1-2.75.47,29.24,29.24,0,0,1-3.71.24,16.32,16.32,0,0,1-3.23-.28,5.63,5.63,0,0,1-2.35-1,4.2,4.2,0,0,1-1.43-2,9.64,9.64,0,0,1-.48-3.34V73.83c.58-.11,1.51-.25,2.79-.44a26.15,26.15,0,0,1,3.66-.28,17,17,0,0,1,3.23.28,5.72,5.72,0,0,1,2.35,1,4.31,4.31,0,0,1,1.44,2,9.71,9.71,0,0,1,.48,3.35Z"></path><path class="cls-10" d="M632.53,83.55q-6.13,0-9.41,3.75t-3.26,10.6q0,6.94,3.62,10.68t9.77,3.75a15.37,15.37,0,0,0,5.54-.88,38.1,38.1,0,0,0,4.34-2,7.82,7.82,0,0,1,2.11,2.67,8.15,8.15,0,0,1,.76,3.63c0,2.18-1.21,4-3.63,5.54s-6.09,2.27-11,2.27a32.52,32.52,0,0,1-10-1.52,22.23,22.23,0,0,1-8.21-4.66,22,22,0,0,1-5.54-8,29.45,29.45,0,0,1-2-11.52,28.66,28.66,0,0,1,2-11,23.25,23.25,0,0,1,5.34-8A22.51,22.51,0,0,1,620.73,74a27.82,27.82,0,0,1,9.73-1.67q7.34,0,11.35,2.39c2.69,1.59,4,3.64,4,6.13a6.2,6.2,0,0,1-1,3.59,8.36,8.36,0,0,1-2.39,2.39A26.09,26.09,0,0,0,638,84.51,14.39,14.39,0,0,0,632.53,83.55Z"></path><path class="cls-9" d="M185.81,141.47a3.69,3.69,0,0,0-2.92,1.16,4.89,4.89,0,0,0-1,3.29,4.54,4.54,0,0,0,1.12,3.31,4,4,0,0,0,3,1.17,4.59,4.59,0,0,0,1.72-.28,11.8,11.8,0,0,0,1.35-.61,2.46,2.46,0,0,1,.65.82,2.54,2.54,0,0,1,.24,1.13,2,2,0,0,1-1.13,1.72,6.57,6.57,0,0,1-3.42.7,10.24,10.24,0,0,1-3.12-.47,6.67,6.67,0,0,1-4.26-3.92,9.12,9.12,0,0,1-.63-3.57,9,9,0,0,1,.6-3.4,7.35,7.35,0,0,1,1.66-2.48,6.81,6.81,0,0,1,2.46-1.53,8.56,8.56,0,0,1,3-.52,6.88,6.88,0,0,1,3.52.74,2.18,2.18,0,0,1,1.25,1.9,1.87,1.87,0,0,1-.33,1.11,2.65,2.65,0,0,1-.74.75,8.11,8.11,0,0,0-1.37-.72A4.43,4.43,0,0,0,185.81,141.47Z"></path><path class="cls-9" d="M191.3,145.92a9.06,9.06,0,0,1,.6-3.41,6.91,6.91,0,0,1,4.13-4,9.35,9.35,0,0,1,6.15,0,7.05,7.05,0,0,1,2.49,1.52,7,7,0,0,1,1.67,2.48,9.06,9.06,0,0,1,.6,3.41,9.37,9.37,0,0,1-.59,3.43,6.75,6.75,0,0,1-4.13,4,8.94,8.94,0,0,1-3.11.52,9,9,0,0,1-3.12-.53,6.86,6.86,0,0,1-2.47-1.55,7,7,0,0,1-1.63-2.49A9,9,0,0,1,191.3,145.92Zm4.44,0a5.2,5.2,0,0,0,.92,3.36,3,3,0,0,0,2.45,1.12,3,3,0,0,0,2.47-1.12,6.63,6.63,0,0,0,0-6.69,3,3,0,0,0-2.46-1.12,3.07,3.07,0,0,0-2.46,1.1A5.11,5.11,0,0,0,195.74,145.92Z"></path><path class="cls-9" d="M208.67,145.92a8.86,8.86,0,0,1,.61-3.41,6.84,6.84,0,0,1,4.13-4,9.35,9.35,0,0,1,6.15,0A6.92,6.92,0,0,1,222,140a6.83,6.83,0,0,1,1.67,2.48,8.86,8.86,0,0,1,.61,3.41,9.37,9.37,0,0,1-.59,3.43,7,7,0,0,1-1.65,2.49,6.92,6.92,0,0,1-2.48,1.52,9,9,0,0,1-3.12.52,8.94,8.94,0,0,1-3.11-.53,6.78,6.78,0,0,1-2.47-1.55,7,7,0,0,1-1.63-2.49A9,9,0,0,1,208.67,145.92Zm4.45,0a5.2,5.2,0,0,0,.92,3.36,3,3,0,0,0,2.44,1.12,3,3,0,0,0,2.48-1.12,5.26,5.26,0,0,0,.91-3.36,5.21,5.21,0,0,0-.9-3.33,3,3,0,0,0-2.46-1.12,3.07,3.07,0,0,0-2.46,1.1A5.11,5.11,0,0,0,213.12,145.92Z"></path><path class="cls-9" d="M231.12,153.34a7.19,7.19,0,0,1-.86.15,8.88,8.88,0,0,1-1.15.07,5,5,0,0,1-1-.09,1.67,1.67,0,0,1-.73-.31,1.34,1.34,0,0,1-.44-.61,3,3,0,0,1-.15-1V139.87a1.09,1.09,0,0,1,.28-.81,2,2,0,0,1,.78-.45,9.05,9.05,0,0,1,1.92-.44,17.39,17.39,0,0,1,2.16-.13,8.1,8.1,0,0,1,5.22,1.46,4.81,4.81,0,0,1,1.8,3.95,6.06,6.06,0,0,1-.38,2.19,4.64,4.64,0,0,1-1.14,1.68,5.18,5.18,0,0,1-1.9,1.09,8.58,8.58,0,0,1-2.66.38h-1.75Zm1.28-7.94a2.39,2.39,0,0,0,1.6-.48,1.84,1.84,0,0,0,.55-1.47A1.81,1.81,0,0,0,234,142a2.54,2.54,0,0,0-1.69-.5h-.66l-.53.06v3.83Z"></path><path class="cls-9" d="M241.15,140.76a2.27,2.27,0,0,1,.62-1.68,2.23,2.23,0,0,1,1.68-.62h8.16a3.2,3.2,0,0,1,.31.71,3.24,3.24,0,0,1,.13.94,1.79,1.79,0,0,1-.41,1.34,1.48,1.48,0,0,1-1.07.39h-5.22v2.3h5.57a3.22,3.22,0,0,1,.3.71,3.06,3.06,0,0,1,.14.92,1.84,1.84,0,0,1-.4,1.34,1.43,1.43,0,0,1-1.06.39h-4.55v2.6h6.36a3.59,3.59,0,0,1,.31.72,3.19,3.19,0,0,1,.13.94,1.81,1.81,0,0,1-.41,1.34,1.46,1.46,0,0,1-1.07.41h-7.22a2.14,2.14,0,0,1-2.3-2.3Z"></path><path class="cls-9" d="M259,148.59v4.75a6.94,6.94,0,0,1-.85.15,9.09,9.09,0,0,1-1.15.07,5.05,5.05,0,0,1-1-.09,1.59,1.59,0,0,1-.71-.31,1.26,1.26,0,0,1-.43-.61,3,3,0,0,1-.15-1V139.87a1.09,1.09,0,0,1,.28-.81,2,2,0,0,1,.78-.45,9.06,9.06,0,0,1,1.95-.44,19.87,19.87,0,0,1,2.38-.13,7.9,7.9,0,0,1,5.14,1.43,4.79,4.79,0,0,1,1.73,3.88,4.37,4.37,0,0,1-.79,2.62,5.64,5.64,0,0,1-1.88,1.68c.59.81,1.18,1.57,1.75,2.28a14.91,14.91,0,0,1,1.36,1.92,2.31,2.31,0,0,1-.9,1.33,2.55,2.55,0,0,1-1.47.45,3.25,3.25,0,0,1-.94-.12,2.24,2.24,0,0,1-.69-.35,2.8,2.8,0,0,1-.55-.54,7.55,7.55,0,0,1-.47-.69l-2.07-3.34Zm1.55-3.29a2.17,2.17,0,0,0,1.49-.48,1.8,1.8,0,0,0,.54-1.42A1.71,1.71,0,0,0,262,142a3.12,3.12,0,0,0-1.92-.48l-.59,0c-.15,0-.32,0-.5.08v3.7Z"></path><path class="cls-9" d="M273.14,138.9a5.45,5.45,0,0,1,1.27-.47,6.71,6.71,0,0,1,1.72-.22,6.11,6.11,0,0,1,2.18.36,1.9,1.9,0,0,1,1.23,1.12c.3.86.62,1.86,1,3s.69,2.31,1,3.53.68,2.4,1,3.58.62,2.22.87,3.13a2.09,2.09,0,0,1-.89.55,4.27,4.27,0,0,1-1.41.21,4.06,4.06,0,0,1-1-.1,1.72,1.72,0,0,1-.67-.29,1.55,1.55,0,0,1-.42-.52,4.23,4.23,0,0,1-.28-.74l-.45-1.71h-4.47c-.13.5-.27,1-.4,1.53s-.26,1-.39,1.54c-.23.08-.48.15-.73.21a5,5,0,0,1-.93.08,3.19,3.19,0,0,1-1.86-.43,1.39,1.39,0,0,1-.61-1.2,2.35,2.35,0,0,1,.1-.69c.06-.23.14-.5.22-.82s.28-1,.48-1.65.44-1.37.68-2.14.51-1.55.79-2.36.55-1.57.79-2.29l.68-1.91C272.86,139.63,273,139.2,273.14,138.9Zm3,3.19-.78,2.31c-.28.85-.54,1.71-.77,2.58h3.06c-.23-.88-.47-1.75-.7-2.6s-.46-1.61-.66-2.29Z"></path><path class="cls-9" d="M283.89,141.92a3.08,3.08,0,0,1-.32-.74,3.3,3.3,0,0,1-.15-1,1.87,1.87,0,0,1,.43-1.39,1.56,1.56,0,0,1,1.13-.42h10.77a3.05,3.05,0,0,1,.33.74,3.64,3.64,0,0,1,.14,1,1.87,1.87,0,0,1-.43,1.39,1.54,1.54,0,0,1-1.12.42h-2.75v11.42a6.59,6.59,0,0,1-.85.15,9,9,0,0,1-1.15.07,5,5,0,0,1-1-.09,1.67,1.67,0,0,1-.73-.31,1.29,1.29,0,0,1-.45-.61,3.31,3.31,0,0,1-.14-1v-9.59Z"></path><path class="cls-9" d="M302.65,153.34a6.94,6.94,0,0,1-.85.15,9,9,0,0,1-1.15.07,5,5,0,0,1-1-.09,1.67,1.67,0,0,1-.73-.31,1.29,1.29,0,0,1-.45-.61,3,3,0,0,1-.15-1v-13l.87-.14a7.59,7.59,0,0,1,1.14-.09,5,5,0,0,1,1,.09,1.8,1.8,0,0,1,.73.31,1.37,1.37,0,0,1,.44.62,3,3,0,0,1,.15,1Z"></path><path class="cls-9" d="M314.84,152.94a3.1,3.1,0,0,1-1.08.52,5.41,5.41,0,0,1-1.59.22,4.5,4.5,0,0,1-1.78-.31,1.84,1.84,0,0,1-1-.85q-.27-.57-.66-1.47c-.27-.6-.54-1.27-.83-2s-.59-1.53-.89-2.36-.6-1.68-.88-2.54-.54-1.69-.79-2.52-.46-1.6-.64-2.32a3.19,3.19,0,0,1,1-.63,3.43,3.43,0,0,1,1.39-.29,2.65,2.65,0,0,1,1.5.39,2.29,2.29,0,0,1,.85,1.42c.45,1.61.9,3.16,1.35,4.63s.93,3,1.42,4.61h.15q.66-2.33,1.37-5.07t1.35-5.46a5.68,5.68,0,0,1,.95-.37,4.06,4.06,0,0,1,1.15-.15,2.88,2.88,0,0,1,1.56.41,1.49,1.49,0,0,1,.64,1.35,7.3,7.3,0,0,1-.26,1.58c-.17.69-.4,1.47-.67,2.34s-.57,1.76-.91,2.7-.68,1.83-1,2.66-.65,1.57-.95,2.2A8.69,8.69,0,0,1,314.84,152.94Z"></path><path class="cls-9" d="M324,138.9a5.64,5.64,0,0,1,1.27-.47,6.76,6.76,0,0,1,1.72-.22,6.13,6.13,0,0,1,2.19.36,1.9,1.9,0,0,1,1.22,1.12c.3.86.62,1.86,1,3s.69,2.31,1,3.53.68,2.4,1,3.58.62,2.22.86,3.13a2,2,0,0,1-.89.55,4.92,4.92,0,0,1-2.41.11,1.67,1.67,0,0,1-.66-.29,1.34,1.34,0,0,1-.42-.52,4.23,4.23,0,0,1-.29-.74l-.44-1.71h-4.48l-.39,1.53c-.13.53-.27,1-.4,1.54a7,7,0,0,1-.73.21,4.77,4.77,0,0,1-.92.08,3.23,3.23,0,0,1-1.87-.43,1.41,1.41,0,0,1-.61-1.2,2.74,2.74,0,0,1,.1-.69c.07-.23.14-.5.23-.82s.27-1,.48-1.65.43-1.37.68-2.14.51-1.55.79-2.36l.79-2.29c.25-.71.47-1.35.68-1.91Zm3,3.19-.78,2.31q-.44,1.28-.78,2.58h3.07c-.24-.88-.47-1.75-.71-2.6s-.46-1.61-.65-2.29Z"></path><path class="cls-9" d="M346.92,153.83l-1,0c-.37,0-.74-.05-1.13-.1s-.77-.11-1.16-.19a5,5,0,0,1-1.08-.31,1.84,1.84,0,0,1-1.36-1.8V139.87a1.1,1.1,0,0,1,.29-.81,2,2,0,0,1,.78-.45,9.66,9.66,0,0,1,2.25-.46,21.07,21.07,0,0,1,2.12-.11,12,12,0,0,1,3.5.47,7.11,7.11,0,0,1,2.69,1.44,6.49,6.49,0,0,1,1.75,2.46,10.23,10.23,0,0,1,0,7,6.64,6.64,0,0,1-1.69,2.47,7,7,0,0,1-2.63,1.5A11,11,0,0,1,346.92,153.83Zm-1.38-3.61c.18,0,.4.06.66.09s.51,0,.74,0a4.8,4.8,0,0,0,1.55-.25,3.13,3.13,0,0,0,1.21-.77,3.46,3.46,0,0,0,.79-1.34,6.19,6.19,0,0,0,.29-2,4.78,4.78,0,0,0-1-3.35,3.59,3.59,0,0,0-2.77-1.13l-.71,0c-.23,0-.48,0-.72.07Z"></path><path class="cls-9" d="M357.7,140.76a2.14,2.14,0,0,1,2.3-2.3h8.15a2.79,2.79,0,0,1,.31.71,3.24,3.24,0,0,1,.14.94,1.84,1.84,0,0,1-.41,1.34,1.49,1.49,0,0,1-1.08.39H361.9v2.3h5.56a2.79,2.79,0,0,1,.31.71,3.06,3.06,0,0,1,.14.92,1.88,1.88,0,0,1-.4,1.34,1.44,1.44,0,0,1-1.06.39H361.9v2.6h6.35a2.72,2.72,0,0,1,.31.72,3.19,3.19,0,0,1,.14.94,1.85,1.85,0,0,1-.41,1.34,1.46,1.46,0,0,1-1.08.41H360a2.27,2.27,0,0,1-1.68-.62,2.23,2.23,0,0,1-.62-1.68Z"></path><path class="cls-9" d="M379.37,138.9a5.57,5.57,0,0,1,1.28-.47,6.69,6.69,0,0,1,1.71-.22,6.13,6.13,0,0,1,2.19.36,1.92,1.92,0,0,1,1.23,1.12c.29.86.61,1.86,1,3s.69,2.31,1,3.53.68,2.4,1,3.58.62,2.22.87,3.13a2.09,2.09,0,0,1-.89.55,4.27,4.27,0,0,1-1.41.21,4.06,4.06,0,0,1-1-.1,1.66,1.66,0,0,1-.67-.29,1.55,1.55,0,0,1-.42-.52A5.19,5.19,0,0,1,385,152l-.44-1.71h-4.47c-.14.5-.27,1-.4,1.53s-.26,1-.4,1.54q-.34.12-.72.21a5,5,0,0,1-.93.08,3.25,3.25,0,0,1-1.87-.43,1.4,1.4,0,0,1-.6-1.2,2.35,2.35,0,0,1,.1-.69c.06-.23.14-.5.22-.82s.27-1,.48-1.65.43-1.37.68-2.14.51-1.55.79-2.36l.79-2.29.68-1.91Zm3,3.19-.78,2.31q-.44,1.28-.78,2.58h3.07c-.23-.88-.47-1.75-.71-2.6s-.45-1.61-.65-2.29Z"></path><path class="cls-9" d="M405.08,153.34a6.59,6.59,0,0,1-.85.15,9,9,0,0,1-1.15.07,5,5,0,0,1-1-.09,1.67,1.67,0,0,1-.73-.31,1.29,1.29,0,0,1-.45-.61,3.31,3.31,0,0,1-.14-1v-3.86H396v5.69a6.94,6.94,0,0,1-.85.15,9,9,0,0,1-1.15.07,4.88,4.88,0,0,1-1-.09,1.62,1.62,0,0,1-.73-.31,1.29,1.29,0,0,1-.45-.61,3,3,0,0,1-.15-1v-13c.18,0,.47-.08.87-.14a7.49,7.49,0,0,1,1.14-.09,5,5,0,0,1,1,.09,1.8,1.8,0,0,1,.73.31,1.37,1.37,0,0,1,.44.62,3,3,0,0,1,.15,1v4h4.75v-5.78c.18,0,.47-.08.86-.14a7.59,7.59,0,0,1,1.14-.09,5,5,0,0,1,1,.09,1.8,1.8,0,0,1,.73.31,1.3,1.3,0,0,1,.44.62,3,3,0,0,1,.15,1Z"></path><path class="cls-9" d="M407.55,145.92a8.86,8.86,0,0,1,.61-3.41,6.84,6.84,0,0,1,4.13-4,9.35,9.35,0,0,1,6.15,0,7.05,7.05,0,0,1,2.49,1.52,6.93,6.93,0,0,1,1.66,2.48,8.86,8.86,0,0,1,.61,3.41,9.37,9.37,0,0,1-.59,3.43,7,7,0,0,1-1.65,2.49,6.92,6.92,0,0,1-2.48,1.52,9,9,0,0,1-3.12.52,8.94,8.94,0,0,1-3.11-.53,6.78,6.78,0,0,1-2.47-1.55,7,7,0,0,1-1.63-2.49A9,9,0,0,1,407.55,145.92Zm4.45,0a5.2,5.2,0,0,0,.92,3.36,3,3,0,0,0,2.44,1.12,3,3,0,0,0,2.48-1.12,6.63,6.63,0,0,0,0-6.69,3,3,0,0,0-2.46-1.12,3.07,3.07,0,0,0-2.46,1.1A5.11,5.11,0,0,0,412,145.92Z"></path><path class="cls-9" d="M430,148.59v4.75a6.59,6.59,0,0,1-.85.15,9,9,0,0,1-1.15.07,5,5,0,0,1-1-.09,1.58,1.58,0,0,1-.72-.31,1.33,1.33,0,0,1-.43-.61,3,3,0,0,1-.15-1V139.87a1.1,1.1,0,0,1,.29-.81,1.85,1.85,0,0,1,.77-.45,9.16,9.16,0,0,1,2-.44,19.7,19.7,0,0,1,2.37-.13,7.88,7.88,0,0,1,5.14,1.43,4.79,4.79,0,0,1,1.73,3.88,4.31,4.31,0,0,1-.79,2.62,5.55,5.55,0,0,1-1.88,1.68c.59.81,1.18,1.57,1.76,2.28a16,16,0,0,1,1.36,1.92,2.37,2.37,0,0,1-.91,1.33,2.51,2.51,0,0,1-1.47.45,3.3,3.3,0,0,1-.94-.12,2.24,2.24,0,0,1-.69-.35,2.51,2.51,0,0,1-.54-.54,6,6,0,0,1-.47-.69l-2.08-3.34Zm1.56-3.29a2.14,2.14,0,0,0,1.48-.48,1.8,1.8,0,0,0,.55-1.42A1.71,1.71,0,0,0,433,142a3.08,3.08,0,0,0-1.92-.48l-.59,0c-.15,0-.31,0-.49.08v3.7Z"></path><path class="cls-9" d="M445,148.59v4.75a7.19,7.19,0,0,1-.86.15,9,9,0,0,1-1.15.07,5,5,0,0,1-1-.09,1.5,1.5,0,0,1-.71-.31,1.34,1.34,0,0,1-.44-.61,3,3,0,0,1-.15-1V139.87a1.1,1.1,0,0,1,.29-.81,2,2,0,0,1,.78-.45,9.06,9.06,0,0,1,1.95-.44,19.7,19.7,0,0,1,2.37-.13,7.86,7.86,0,0,1,5.14,1.43,4.76,4.76,0,0,1,1.73,3.88,4.31,4.31,0,0,1-.79,2.62,5.52,5.52,0,0,1-1.87,1.68c.59.81,1.17,1.57,1.75,2.28a14.91,14.91,0,0,1,1.36,1.92,2.41,2.41,0,0,1-.9,1.33,2.55,2.55,0,0,1-1.47.45,3.21,3.21,0,0,1-.94-.12,2.19,2.19,0,0,1-.7-.35,3.06,3.06,0,0,1-.54-.54,7.55,7.55,0,0,1-.47-.69l-2.07-3.34Zm1.55-3.29a2.19,2.19,0,0,0,1.49-.48,1.8,1.8,0,0,0,.54-1.42A1.68,1.68,0,0,0,448,142a3.06,3.06,0,0,0-1.91-.48l-.6,0c-.14,0-.31,0-.49.08v3.7Z"></path><path class="cls-9" d="M454.84,145.92a9.06,9.06,0,0,1,.6-3.41A7.07,7.07,0,0,1,457.1,140a6.88,6.88,0,0,1,2.47-1.52,9.38,9.38,0,0,1,6.16,0,7.1,7.1,0,0,1,2.48,1.52,6.83,6.83,0,0,1,1.67,2.48,9.06,9.06,0,0,1,.6,3.41,9.17,9.17,0,0,1-.59,3.43,6.75,6.75,0,0,1-4.13,4,8.94,8.94,0,0,1-3.11.52,9,9,0,0,1-3.12-.53,6.86,6.86,0,0,1-2.47-1.55,7.14,7.14,0,0,1-1.63-2.49A9.19,9.19,0,0,1,454.84,145.92Zm4.45,0a5.2,5.2,0,0,0,.91,3.36,3.26,3.26,0,0,0,4.92,0,6.57,6.57,0,0,0,0-6.69,3,3,0,0,0-2.46-1.12,3.07,3.07,0,0,0-2.46,1.1A5.17,5.17,0,0,0,459.29,145.92Z"></path><path class="cls-9" d="M485.76,153.34a6.7,6.7,0,0,1-.84.15,8.48,8.48,0,0,1-1.11.07,3.14,3.14,0,0,1-1.71-.38,1.86,1.86,0,0,1-.57-1.62v-3.34c-.41-.61-.85-1.28-1.33-2s-.95-1.5-1.41-2.27-.89-1.54-1.29-2.29a22.54,22.54,0,0,1-1-2.06,3.33,3.33,0,0,1,.88-.82,2.48,2.48,0,0,1,1.37-.37,2.77,2.77,0,0,1,1.57.4,3.72,3.72,0,0,1,1.15,1.48l2.05,4.13h.15c.23-.51.43-1,.6-1.4s.35-.84.51-1.26l.52-1.31c.18-.45.39-1,.62-1.57a4,4,0,0,1,1-.34,4.27,4.27,0,0,1,1-.13,2.44,2.44,0,0,1,1.48.46,1.62,1.62,0,0,1,.6,1.37,2.69,2.69,0,0,1-.12.72,8.57,8.57,0,0,1-.57,1.27c-.3.57-.73,1.34-1.3,2.31s-1.34,2.24-2.31,3.81Z"></path><path class="cls-9" d="M504.67,141.47a3.69,3.69,0,0,0-2.92,1.16,4.89,4.89,0,0,0-1,3.29,4.54,4.54,0,0,0,1.12,3.31,4,4,0,0,0,3,1.17,4.59,4.59,0,0,0,1.72-.28,11.8,11.8,0,0,0,1.35-.61,2.34,2.34,0,0,1,.65.82,2.54,2.54,0,0,1,.24,1.13,2,2,0,0,1-1.13,1.72,6.57,6.57,0,0,1-3.42.7,10.24,10.24,0,0,1-3.12-.47,6.67,6.67,0,0,1-4.26-3.92,9.12,9.12,0,0,1-.63-3.57,8.78,8.78,0,0,1,.61-3.4,7.19,7.19,0,0,1,1.65-2.48,6.81,6.81,0,0,1,2.46-1.53,8.6,8.6,0,0,1,3-.52,6.88,6.88,0,0,1,3.52.74,2.18,2.18,0,0,1,1.25,1.9,1.93,1.93,0,0,1-.32,1.11,2.81,2.81,0,0,1-.75.75,7.74,7.74,0,0,0-1.37-.72A4.4,4.4,0,0,0,504.67,141.47Z"></path><path class="cls-9" d="M515.45,148.59v4.75a6.83,6.83,0,0,1-.86.15,8.88,8.88,0,0,1-1.15.07,5,5,0,0,1-1-.09,1.54,1.54,0,0,1-.71-.31,1.34,1.34,0,0,1-.44-.61,3,3,0,0,1-.14-1V139.87a1.09,1.09,0,0,1,.28-.81,2,2,0,0,1,.78-.45,9.06,9.06,0,0,1,1.95-.44,19.7,19.7,0,0,1,2.37-.13,7.91,7.91,0,0,1,5.15,1.43,4.79,4.79,0,0,1,1.73,3.88,4.37,4.37,0,0,1-.79,2.62,5.64,5.64,0,0,1-1.88,1.68c.59.81,1.17,1.57,1.75,2.28a14.91,14.91,0,0,1,1.36,1.92,2.36,2.36,0,0,1-.9,1.33,2.55,2.55,0,0,1-1.47.45,3.25,3.25,0,0,1-.94-.12,2,2,0,0,1-.69-.35,2.8,2.8,0,0,1-.55-.54,7.55,7.55,0,0,1-.47-.69l-2.07-3.34ZM517,145.3a2.19,2.19,0,0,0,1.49-.48,1.8,1.8,0,0,0,.54-1.42,1.68,1.68,0,0,0-.61-1.42,3.06,3.06,0,0,0-1.91-.48l-.59,0c-.15,0-.32,0-.5.08v3.7Z"></path><path class="cls-9" d="M526,140.76a2.13,2.13,0,0,1,2.29-2.3h8.16a2.79,2.79,0,0,1,.31.71,3.24,3.24,0,0,1,.14.94,1.84,1.84,0,0,1-.41,1.34,1.49,1.49,0,0,1-1.08.39h-5.21v2.3h5.56a3.2,3.2,0,0,1,.31.71,3.05,3.05,0,0,1,.13.92,1.88,1.88,0,0,1-.39,1.34,1.46,1.46,0,0,1-1.06.39h-4.55v2.6h6.35a3.09,3.09,0,0,1,.31.72,3.19,3.19,0,0,1,.13.94,1.85,1.85,0,0,1-.4,1.34,1.46,1.46,0,0,1-1.08.41h-7.22a2.3,2.3,0,0,1-1.68-.62,2.27,2.27,0,0,1-.61-1.68Zm6.67-8.36a2.91,2.91,0,0,1,1.73.58,1.48,1.48,0,0,1,.52,1.13,1.57,1.57,0,0,1-.41,1.13,3.7,3.7,0,0,1-1.27.77l-3.39,1.33a2.08,2.08,0,0,1-1.15-.59,1.37,1.37,0,0,1-.43-1,1.28,1.28,0,0,1,.77-1.18Z"></path><path class="cls-9" d="M545.26,153.83l-1,0c-.36,0-.74-.05-1.12-.1s-.78-.11-1.16-.19a5,5,0,0,1-1.08-.31,1.82,1.82,0,0,1-1.36-1.8V139.87a1.1,1.1,0,0,1,.29-.81,1.85,1.85,0,0,1,.77-.45,9.66,9.66,0,0,1,2.25-.46A21.11,21.11,0,0,1,545,138a12,12,0,0,1,3.5.47A7.19,7.19,0,0,1,551.2,140a6.47,6.47,0,0,1,1.74,2.46,9,9,0,0,1,.62,3.51,9.3,9.3,0,0,1-.59,3.45,6.66,6.66,0,0,1-1.7,2.47,7,7,0,0,1-2.63,1.5A11,11,0,0,1,545.26,153.83Zm-1.39-3.61c.18,0,.41.06.67.09s.51,0,.74,0a4.8,4.8,0,0,0,1.55-.25,3.13,3.13,0,0,0,1.21-.77,3.58,3.58,0,0,0,.79-1.34,6.2,6.2,0,0,0,.28-2,4.74,4.74,0,0,0-1-3.35,3.57,3.57,0,0,0-2.76-1.13c-.24,0-.47,0-.71,0s-.48,0-.73.07Z"></path><path class="cls-9" d="M560.36,153.34a6.94,6.94,0,0,1-.85.15,9,9,0,0,1-1.15.07,4.88,4.88,0,0,1-1-.09,1.62,1.62,0,0,1-.73-.31,1.29,1.29,0,0,1-.45-.61,3,3,0,0,1-.15-1v-13c.18,0,.47-.08.87-.14a7.47,7.47,0,0,1,1.13-.09,5.05,5.05,0,0,1,1,.09,1.86,1.86,0,0,1,.73.31,1.37,1.37,0,0,1,.44.62,3,3,0,0,1,.15,1Z"></path><path class="cls-9" d="M562.88,141.92a3.08,3.08,0,0,1-.32-.74,3.3,3.3,0,0,1-.15-1,1.87,1.87,0,0,1,.43-1.39,1.56,1.56,0,0,1,1.13-.42h10.77a3.05,3.05,0,0,1,.33.74,3.64,3.64,0,0,1,.14,1,1.87,1.87,0,0,1-.43,1.39,1.54,1.54,0,0,1-1.12.42h-2.75v11.42a6.59,6.59,0,0,1-.85.15,9,9,0,0,1-1.15.07,5,5,0,0,1-1-.09,1.67,1.67,0,0,1-.73-.31,1.21,1.21,0,0,1-.44-.61,3,3,0,0,1-.15-1v-9.59Z"></path><path class="cls-9" d="M575.93,145.92a8.86,8.86,0,0,1,.61-3.41,6.86,6.86,0,0,1,4.12-4,9.38,9.38,0,0,1,6.16,0A6.92,6.92,0,0,1,589.3,140a6.83,6.83,0,0,1,1.67,2.48,8.86,8.86,0,0,1,.61,3.41,9.17,9.17,0,0,1-.6,3.43,6.77,6.77,0,0,1-4.12,4,9,9,0,0,1-3.12.52,8.94,8.94,0,0,1-3.11-.53,6.78,6.78,0,0,1-2.47-1.55,7,7,0,0,1-1.64-2.49A9.19,9.19,0,0,1,575.93,145.92Zm4.45,0a5.2,5.2,0,0,0,.92,3.36,3,3,0,0,0,2.44,1.12,3,3,0,0,0,2.47-1.12,6.6,6.6,0,0,0,0-6.69,3,3,0,0,0-2.46-1.12,3.07,3.07,0,0,0-2.46,1.1A5.11,5.11,0,0,0,580.38,145.92Z"></path></svg> 